PathFileType	4	(X/Y/Z)	./resultDataOpenSim/trcMotMarkerGrf/sub06/qtm-12-05.trc
DataRate	CameraRate	NumFrames	NumMarkers	Units	OrigDataRate	OrigDataStartFrame	OrigNumFrames
250.000000	250.000000	8	24	m	250.000000	194	517
Frame#	Time	L.Toe.Tip			R.Toe.Tip			L.Ankle.Lat			R.Ankle.Lat			L.Ankle.Med			R.Ankle.Med			L.Heel			R.Heel			L.Knee.Lat			R.Knee.Lat			L.Knee.Med			R.Knee.Med			L.Thigh.Upper			R.Thigh.Upper			L.ASIS			R.ASIS			V.Sacral			L.Acromium			R.Acromium			C7			L.Elbow			R.Elbow			L.Wrist.Lat			R.Wrist.Lat
		X1	Y1	Z1	X2	Y2	Z2	X3	Y3	Z3	X4	Y4	Z4	X5	Y5	Z5	X6	Y6	Z6	X7	Y7	Z7	X8	Y8	Z8	X9	Y9	Z9	X10	Y10	Z10	X11	Y11	Z11	X12	Y12	Z12	X13	Y13	Z13	X14	Y14	Z14	X15	Y15	Z15	X16	Y16	Z16	X17	Y17	Z17	X18	Y18	Z18	X19	Y19	Z19	X20	Y20	Z20	X21	Y21	Z21	X22	Y22	Z22	X23	Y23	Z23	X24	Y24	Z24

194	0.772	0.09215963	0.0094884812	-0.057878612	-0.59331903	0.074638777	0.087547983	-0.03063608	0.04205424	-0.08179129	-0.59145556	0.21473197	0.11674675	-0.033697716	0.055053498	0.0051749288	-0.54763734	0.19826306	0.03924457	-0.10742062	0.015236438	-0.039252488	-0.60874561	0.25847763	0.04970126	0.023476481	0.4140019	-0.10626596	-0.24431643	0.37091548	0.17212976	-0.0022827648	0.41539278	0.011794913	-0.23316169	0.34398273	0.040215953	-0.13645735	0.77006587	-0.18210747	-0.22675146	0.73033855	0.15521159	-0.08190023	0.80960489	-0.11971598	-0.12103133	0.78786864	0.11888421	-0.28768966	0.87473798	-0.017921697	-0.16225949	1.2767675	-0.20389489	-0.16681789	1.2748322	0.16078241	-0.24606929	1.316858	-0.02365523	-0.26593912	0.98171932	-0.24889171	-0.20125242	0.95960493	0.26343164	-0.19737083	0.75564682	-0.30808687	0.0324775	0.86936283	0.24882537
195	0.776	0.092093502	0.0095048372	-0.05814308	-0.57801563	0.077834602	0.089839946	-0.030722669	0.041885813	-0.082075915	-0.57754185	0.21839315	0.1170741	-0.03345542	0.055155191	0.0050235257	-0.53386922	0.2015314	0.039345257	-0.10741843	0.015330574	-0.039157441	-0.59527074	0.26098956	0.049788977	0.025635658	0.41301503	-0.1075188	-0.23020049	0.371102	0.17330531	0.001154809	0.41434902	0.010580898	-0.21988884	0.34552673	0.041042819	-0.13133602	0.77132836	-0.18272868	-0.21986614	0.73134395	0.15399501	-0.076147202	0.81075868	-0.12079037	-0.11421126	0.78897443	0.11825105	-0.28097896	0.87611054	-0.017714742	-0.154692	1.2777756	-0.20392024	-0.159707	1.2759197	0.16064332	-0.23882479	1.3181711	-0.023863086	-0.2569904	0.98208072	-0.24947037	-0.1965319	0.96069553	0.26234296	-0.18634501	0.7565158	-0.30839322	0.035564898	0.86656841	0.24960968
196	0.78	0.092015715	0.0095177275	-0.05837894	-0.56223819	0.080792936	0.09205441	-0.030827403	0.041727777	-0.082341428	-0.56329608	0.22170208	0.11743718	-0.033249351	0.055312611	0.0047998109	-0.51966062	0.20447605	0.0395082	-0.10743905	0.015405363	-0.039102573	-0.58154568	0.26326783	0.049998691	0.027576672	0.41204682	-0.10864541	-0.21600426	0.37160712	0.17436836	0.0043311636	0.4132806	0.009619015	-0.20668138	0.34726196	0.041826343	-0.1260881	0.77277325	-0.18332053	-0.21277221	0.73255596	0.15314744	-0.070381893	0.81197379	-0.12181471	-0.10751013	0.79029417	0.11770537	-0.27465872	0.87761755	-0.017901135	-0.14718783	1.278916	-0.20391116	-0.15272711	1.2771362	0.16052523	-0.23164173	1.319577	-0.024066058	-0.24800085	0.98255404	-0.25008464	-0.19188689	0.96193253	0.26125556	-0.17521427	0.75756395	-0.30865151	0.038494917	0.86381828	0.25045559
197	0.784	0.091924009	0.0095264618	-0.058581256	-0.54605018	0.083508715	0.094179553	-0.030944196	0.041577467	-0.082568482	-0.54878401	0.22457738	0.11784981	-0.033105487	0.055502851	0.004521805	-0.50521412	0.20717363	0.039839287	-0.10749644	0.015458325	-0.039105202	-0.56764552	0.26537549	0.050341918	0.029371136	0.41114024	-0.10960063	-0.20175768	0.37243748	0.17532219	0.0071777839	0.41226063	0.0089120209	-0.1934317	0.34912998	0.042542895	-0.12067499	0.77436005	-0.18387099	-0.2059986	0.73394494	0.15255203	-0.064647107	0.81322695	-0.12277591	-0.10099135	0.79177664	0.11728976	-0.26870322	0.87921073	-0.018563121	-0.13974946	1.2801828	-0.20387537	-0.14587109	1.2784786	0.16044398	-0.22451595	1.3210748	-0.024255761	-0.23894606	0.98311682	-0.25077956	-0.1873858	0.96332369	0.26015889	-0.16402952	0.75877426	-0.30888659	0.041255817	0.86112873	0.25134438
198	0.788	0.091818683	0.0095321412	-0.05875674	-0.52952496	0.085977113	0.096199618	-0.031093812	0.041442246	-0.082768862	-0.53408013	0.22703468	0.11830525	-0.033027333	0.055689505	0.0042562953	-0.49064529	0.20968447	0.04030502	-0.10758147	0.015500705	-0.039140957	-0.55364121	0.26730314	0.050746905	0.03107402	0.41033309	-0.11037053	-0.18748324	0.3735887	0.17617131	0.0095267728	0.41138257	0.0084032891	-0.18006631	0.35111351	0.043192975	-0.11511952	0.7760248	-0.18436414	-0.19967686	0.73547754	0.1520329	-0.059001662	0.81450806	-0.12367233	-0.094638047	0.79340864	0.11699305	-0.26275674	0.88088718	-0.019345428	-0.13238391	1.2815727	-0.20380804	-0.13913054	1.2799465	0.16041278	-0.21744292	1.3226604	-0.024425882	-0.22989537	0.98377446	-0.25144981	-0.18306538	0.96487152	0.25904656	-0.15284737	0.76012935	-0.30912516	0.043840847	0.85851072	0.25223035
199	0.792	0.09170712	0.0095353303	-0.058907923	-0.51274094	0.088201773	0.098109728	-0.031287421	0.041336188	-0.082957919	-0.51923724	0.22914919	0.1187882	-0.032995441	0.055854716	0.0040507253	-0.47595335	0.21201083	0.04079605	-0.10767306	0.015544431	-0.039180823	-0.53962934	0.26899972	0.051134056	0.032703436	0.40964287	-0.11097551	-0.17320631	0.37505107	0.17691975	0.011268835	0.41074961	0.0080299467	-0.16655611	0.35322877	0.043787657	-0.1094429	0.7777002	-0.18480435	-0.1935231	0.73713973	0.15154166	-0.053443635	0.81582867	-0.12450975	-0.088349466	0.79520578	0.11675795	-0.25664051	0.88267371	-0.019948938	-0.12508979	1.2830849	-0.20370654	-0.13249837	1.2815395	0.16043778	-0.2104119	1.3243321	-0.024573545	-0.22096993	0.98455171	-0.25190754	-0.17882438	0.96656853	0.25790825	-0.14168166	0.76162691	-0.30936668	0.046264633	0.85597117	0.25307621
200	0.796	0.091601923	0.0095376324	-0.059036125	-0.49575715	0.090192061	0.099915401	-0.031487415	0.041278283	-0.08311921	-0.50427255	0.23099989	0.11928704	-0.032989157	0.056004972	0.0039053668	-0.46111251	0.21413375	0.041268818	-0.10775282	0.015598602	-0.039207177	-0.52567829	0.2704286	0.05149691	0.034262824	0.40906622	-0.11144616	-0.15896414	0.37681539	0.17757298	0.012430511	0.41042581	0.0077441938	-0.15291163	0.35550187	0.04432416	-0.10363038	0.77933547	-0.18521408	-0.18723153	0.73894308	0.15109036	-0.047890733	0.8172078	-0.12529052	-0.082047524	0.79716439	0.11653793	-0.25057141	0.88457772	-0.020360711	-0.11784056	1.284715	-0.20358645	-0.12596484	1.2832466	0.16051879	-0.20340877	1.3260884	-0.024698339	-0.21218693	0.98544796	-0.25213473	-0.17448809	0.96840041	0.25673179	-0.13047202	0.76328424	-0.30956363	0.048564826	0.85351613	0.25387558
201	0.8	0.091512955	0.0095402637	-0.059145973	-0.47860243	0.091957446	0.10161833	-0.031632719	0.041280666	-0.083219552	-0.48918038	0.23262994	0.11980443	-0.033009383	0.056144565	0.0038043186	-0.44611834	0.21604113	0.041766894	-0.10781339	0.015670469	-0.039212073	-0.51176576	0.27158517	0.051887968	0.035768362	0.40859565	-0.11179506	-0.14479734	0.37887033	0.17813009	0.013133698	0.41039849	0.0075083906	-0.13918376	0.35792983	0.044792039	-0.097702402	0.78089276	-0.1856006	-0.18071957	0.74090358	0.15062903	-0.042277917	0.81865253	-0.1260074	-0.075756869	0.79923982	0.11633579	-0.24471006	0.88657059	-0.020618236	-0.11060564	1.2864507	-0.20346527	-0.11951462	1.2850473	0.16065203	-0.19642513	1.3279233	-0.024796664	-0.20345952	0.9864375	-0.2522859	-0.16998459	0.97035138	0.25551784	-0.1191329	0.76512049	-0.30965487	0.050764014	0.85115597	0.2546457
